<?xml version="1.0" encoding="utf-8"?>
<!-- Generator: Adobe Illustrator 21.1.0, SVG Export Plug-In . SVG Version: 6.00 Build 0)  -->
<svg version="1.1" id="Layer_1" xmlns="http://www.w3.org/2000/svg" xmlns:xlink="http://www.w3.org/1999/xlink" x="0px" y="0px"
	 viewBox="0 0 18.3 16.3" style="enable-background:new 0 0 18.3 16.3;" xml:space="preserve">
<style type="text/css">
	.st0{fill:none;stroke:#FFFFFF;stroke-width:1.25;stroke-linecap:round;stroke-linejoin:round;}
</style>
<title>Health</title>
<g id="Layer_2">
	<g id="Layer_1-2">
		<path class="st0" d="M6.9,0.9C6.4,0.7,6,0.6,5.5,0.6c-2.7,0.1-4.9,2.3-4.9,5c0,1.1,0.4,2.1,1,3l0.1,0.1C1.9,9,2.2,9.3,2.4,9.5
			l6.7,6.1l0,0"/>
		<path class="st0" d="M12.8,0.6c2.7,0.1,4.9,2.3,4.9,5c0,1.1-0.4,2.1-1,3l-0.1,0.1c-0.2,0.3-0.4,0.5-0.7,0.7l-6.7,6.1l0,0"/>
		<path class="st0" d="M8,4.9c0.3-2.4,2.3-4.2,4.8-4.3"/>
	</g>
</g>
</svg>
